<?xml version="1.0" standalone="no"?>
<!DOCTYPE svg PUBLIC "-//W3C//DTD SVG 20010904//EN"
 "http://www.w3.org/TR/2001/REC-SVG-20010904/DTD/svg10.dtd">
<svg version="1.0" xmlns="http://www.w3.org/2000/svg"
 width="512.000000pt" height="512.000000pt" viewBox="0 0 512.000000 512.000000"
 preserveAspectRatio="xMidYMid meet">
<metadata>
Created by potrace 1.14, written by Peter Selinger 2001-2017
</metadata>
<g transform="translate(0.000000,512.000000) scale(0.100000,-0.100000)"
fill="#000000" stroke="none">
<path d="M1740 4485 l0 -95 -95 0 -95 0 0 -50 0 -50 -145 0 -145 0 0 -45 0
-45 95 0 95 0 0 -49 0 -50 -47 -3 -48 -3 -3 -47 -3 -48 -44 0 -44 0 -3 -47 -3
-48 -45 -1 -45 -1 -3 -241 -2 -242 50 0 51 0 -2 -179 c0 -99 2 -184 6 -190 3
-6 26 -11 51 -11 l44 0 0 191 0 190 48 -3 47 -3 -4 -142 -3 -143 102 0 101 0
-3 47 -3 46 -40 2 c-22 1 -43 3 -47 4 -5 0 -8 21 -8 46 l0 45 145 0 145 0 0
100 0 100 50 0 50 0 0 45 0 45 195 0 195 0 0 -45 0 -45 -127 0 c-71 0 -158 -3
-195 -7 l-68 -6 0 -93 0 -94 50 0 50 0 0 -95 0 -95 95 0 95 0 0 145 0 145 50
0 50 0 0 50 0 50 45 0 44 0 3 -97 3 -98 48 -3 47 -3 0 100 0 101 50 0 50 0 0
-100 0 -100 50 0 50 0 0 -95 0 -95 95 0 95 0 0 145 0 145 45 0 45 0 0 44 0 44
-190 7 -190 7 0 44 0 44 195 0 195 0 0 -45 0 -45 45 0 45 0 0 -50 0 -50 50 0
50 0 -2 243 -3 242 -45 1 -45 0 -3 97 -3 97 -44 0 -44 0 -3 48 -3 47 -47 3
-48 3 0 45 0 44 -50 0 -50 0 0 50 0 50 -95 0 -95 0 0 50 0 50 45 0 45 0 0 45
0 45 -385 0 -385 0 0 -45 0 -45 -50 0 -50 0 0 45 0 45 -50 0 -50 0 0 -95z
m880 -240 l0 -45 95 0 95 0 0 -50 0 -50 -95 0 -95 0 0 45 0 45 -50 0 -50 0 0
-95 0 -95 50 0 50 0 0 -50 0 -51 -97 3 -98 3 -3 98 -3 97 -44 0 -45 0 0 50 0
50 95 0 95 0 0 45 0 45 50 0 50 0 0 -45z m-682 -147 l3 -98 -51 0 -50 0 0 101
0 100 48 -3 47 -3 3 -97z m192 52 l0 -50 50 0 50 0 0 -50 0 -50 50 0 50 0 0
-50 0 -50 -50 0 -50 0 0 50 0 49 -97 3 -98 3 -3 84 c-2 46 -1 90 2 98 3 8 22
13 51 13 l45 0 0 -50z"/>
<path d="M4050 4355 l0 -45 -130 0 -130 0 0 -45 0 -45 -45 0 -45 0 0 -39 c0
-39 -1 -40 -40 -43 -22 -2 -40 -6 -40 -10 0 -5 0 -64 0 -133 l0 -125 40 0 40
0 0 -40 0 -40 40 0 40 0 0 -40 0 -40 -44 0 -45 0 -3 -47 -3 -48 -47 -3 -48 -3
0 -45 0 -44 -50 0 -50 0 0 -50 0 -50 -44 0 -45 0 -3 -47 -3 -48 -47 -3 -48 -3
0 -45 0 -44 -50 0 -50 0 0 -50 0 -50 -50 0 -50 0 0 -50 0 -50 -95 0 -95 0 0
-95 0 -95 -50 0 -50 0 0 -50 0 -50 -145 0 -145 0 0 -50 0 -50 -112 0 c-62 0
-149 3 -193 6 l-80 7 0 41 0 41 -147 3 -148 3 0 49 0 50 -44 0 -45 0 -3 48 -3
47 -47 3 -48 3 0 45 0 44 -135 0 -135 0 0 -44 0 -43 77 -7 c42 -3 102 -6 135
-6 l58 0 0 -45 0 -45 45 0 45 0 0 -50 0 -50 50 0 50 0 0 -70 0 -70 50 0 c43 0
50 3 50 20 0 17 7 20 45 20 l45 0 0 -37 c0 -21 8 -45 17 -56 15 -15 19 -42 21
-138 4 -134 -11 -199 -54 -240 -23 -22 -36 -24 -147 -29 l-122 -5 0 -35 c0
-35 0 -35 -47 -38 l-48 -3 0 40 c0 39 -2 41 -30 41 -28 0 -30 -2 -30 -40 0
-38 2 -40 30 -40 29 0 30 -1 30 -50 l0 -50 163 0 c109 0 170 -4 187 -13 41
-21 70 -74 70 -128 0 -48 1 -49 29 -49 28 0 30 2 33 48 l3 47 95 0 95 0 0 -45
0 -45 -47 -3 -48 -3 0 -50 0 -49 -50 0 -50 0 0 -51 0 -51 -40 4 c-33 3 -41 0
-52 -20 -18 -35 -60 -52 -128 -52 -53 0 -60 -2 -60 -20 0 -18 -7 -20 -88 -20
-59 0 -94 -5 -108 -14 -17 -12 -22 -12 -39 0 -30 22 -591 20 -623 -2 -20 -14
-24 -14 -38 0 -13 14 -60 16 -348 16 -310 0 -334 -1 -349 -18 -10 -10 -17 -26
-17 -35 0 -10 -8 -17 -18 -17 -11 0 -26 -8 -35 -18 -15 -16 -17 -53 -17 -309
0 -316 6 -354 54 -373 14 -5 30 -22 38 -37 l13 -28 490 0 490 0 17 35 c13 26
17 62 18 138 0 78 3 103 13 100 8 -3 13 -36 15 -109 1 -57 7 -108 12 -113 6
-6 10 -18 10 -28 0 -10 10 -20 23 -23 12 -3 157 -4 321 -3 l299 3 18 32 c14
24 19 59 21 135 l3 103 155 5 c153 5 155 5 167 30 11 22 13 9 13 -92 0 -116
16 -191 44 -210 6 -4 76 -8 156 -8 80 0 150 4 156 8 6 4 17 25 26 47 13 33 16
85 16 270 l1 230 63 -1 63 -1 5 -249 c5 -237 10 -280 34 -296 6 -4 76 -8 156
-8 80 0 150 4 156 8 7 4 19 24 28 46 13 31 16 79 16 266 l0 228 61 4 c33 1 63
1 65 -1 2 -2 4 -110 4 -240 1 -202 3 -241 18 -271 l17 -35 160 0 160 0 17 35
c13 26 17 62 18 138 0 61 4 102 10 102 12 0 12 -2 10 -95 -1 -72 21 -163 44
-177 6 -4 244 -8 528 -8 403 0 519 3 525 12 21 33 33 89 33 156 0 64 -3 76
-25 97 -24 25 -26 25 -210 25 l-185 0 0 258 c0 238 -1 260 -18 275 -16 14 -43
17 -173 17 -117 0 -160 -3 -174 -14 -16 -12 -22 -12 -41 1 -18 11 -76 13 -328
11 -240 -2 -306 0 -306 10 0 9 -26 12 -94 12 l-95 0 -3 48 -3 47 -47 3 -48 3
0 44 0 44 -47 3 -48 3 -3 48 -3 47 -45 0 -44 0 0 50 0 50 45 0 45 0 0 45 0 45
50 0 51 0 -3 147 -3 146 -45 1 -45 1 -3 48 -3 47 -45 0 -44 0 0 50 0 50 -50 0
-50 0 0 94 0 95 48 3 47 3 3 48 3 47 44 0 44 0 3 48 3 47 48 3 47 3 0 44 0 44
48 3 47 3 3 47 3 47 47 3 47 3 3 48 3 47 44 0 44 0 3 48 3 47 48 3 47 3 0 45
c0 33 4 44 15 44 14 0 15 -40 15 -327 -1 -223 2 -328 9 -329 6 -1 24 -2 41 -3
l29 -1 3 -127 3 -128 43 -3 42 -3 0 -85 0 -84 45 0 45 0 0 -130 0 -130 40 0
40 0 0 -85 0 -85 45 0 45 0 0 -85 0 -85 39 0 c40 0 40 0 43 -43 l3 -42 88 -3
87 -3 0 46 0 45 45 0 45 0 0 85 0 85 45 0 45 0 0 85 0 85 40 0 40 0 0 130 0
130 45 0 45 0 0 85 0 85 40 0 40 0 0 130 0 130 28 1 c15 1 34 2 42 3 13 1 15
48 18 349 l2 347 -45 0 -45 0 0 45 0 45 -40 0 -40 0 0 85 0 85 -45 0 -45 0 0
40 0 40 45 0 45 0 0 45 0 45 40 0 40 0 0 40 0 40 45 0 45 0 0 135 0 135 -45 0
-45 0 0 40 0 40 -40 0 -40 0 0 45 0 45 -129 0 -130 0 -3 43 -3 42 -172 3 -173
2 0 -45z m170 -140 l0 -85 45 0 44 0 3 -82 3 -83 39 0 c39 0 39 0 40 40 l1 40
44 0 c47 0 57 -13 46 -62 -5 -19 -12 -23 -45 -23 l-40 0 0 -84 0 -85 -42 -3
c-43 -3 -43 -3 -46 -45 -3 -42 -3 -42 -45 -45 -41 -3 -42 -4 -45 -40 -3 -35
-5 -37 -40 -40 -36 -3 -37 -4 -40 -45 l-3 -43 39 0 c43 0 52 -11 48 -54 l-3
-26 106 -2 c58 -1 115 -2 126 -3 11 -1 39 -3 63 -4 l42 -1 0 -45 0 -45 44 0
45 0 3 -42 3 -43 43 3 42 4 0 -256 0 -256 -45 0 -45 0 0 -130 0 -130 -45 0
-45 0 0 -85 0 -85 -40 0 -40 0 0 -129 0 -130 -42 -3 -43 -3 -3 -87 -3 -87 -41
-3 -40 -3 -2 -125 -1 -125 -82 -3 -82 -3 -3 133 -3 133 -37 3 -37 3 -3 82 -3
82 -42 3 -42 3 -3 127 -3 127 -42 3 -43 3 0 85 0 84 -40 0 -39 0 -3 128 -3
127 -42 3 -43 3 0 252 0 252 42 0 43 0 3 43 c3 42 3 42 43 42 l39 0 0 51 0 51
42 -4 41 -3 5 138 c2 76 1 171 -3 212 l-7 74 -36 3 c-35 3 -38 6 -46 45 -8 39
-11 42 -45 45 -35 3 -36 4 -39 46 l-3 44 48 -2 c26 -1 68 -1 92 -1 l44 1 -7
80 -7 80 45 0 45 0 3 -122 3 -123 36 -3 37 -3 7 170 7 171 39 0 39 0 0 -85z
m-433 -752 c-3 -10 -5 -2 -5 17 0 19 2 27 5 18 2 -10 2 -26 0 -35z m-90 -90
c-3 -10 -5 -2 -5 17 0 19 2 27 5 18 2 -10 2 -26 0 -35z m-987 -778 l0 -45 50
0 50 0 0 -50 0 -50 50 0 50 0 0 -50 0 -50 -50 0 -50 0 0 -45 0 -45 -44 0 -45
0 -3 47 -3 47 -47 -3 -48 -3 0 51 0 51 -50 0 -50 0 0 95 0 95 95 0 95 0 0 -45z
m-390 -195 l0 -50 -45 0 -45 0 0 -45 0 -45 -50 0 -50 0 0 88 c0 49 3 92 7 95
3 4 46 7 95 7 l88 0 0 -50z m780 -290 l0 -140 -45 0 -45 0 0 140 0 140 45 0
45 0 0 -140z m-672 -94 l-3 -41 48 -3 47 -3 0 -50 0 -49 50 0 50 0 0 -50 0
-50 51 0 50 0 -3 -47 -3 -48 -95 0 -95 0 -3 48 -3 47 -44 0 -44 0 -3 48 -3 47
-47 3 -47 3 -3 47 -3 47 -47 3 -48 3 0 44 0 44 53 3 c28 2 74 1 100 -1 l48 -3
-3 -42z m672 -496 l0 -50 -47 0 -48 0 3 50 4 50 44 0 44 0 0 -50z m-2182 -182
l3 -68 -208 -2 -208 -3 0 -205 0 -205 208 -3 207 -2 0 -70 0 -70 -313 2 -312
3 -3 32 c-3 28 -7 32 -35 35 l-32 3 0 275 0 275 33 3 c28 3 32 7 32 31 0 15 3
31 7 34 4 4 144 6 312 5 l306 -3 3 -67z m662 37 c0 -33 2 -35 35 -35 l35 0 0
-315 0 -315 -140 0 -140 0 0 140 0 140 -65 0 -64 0 -3 -137 -3 -138 -137 -3
-138 -3 0 316 0 315 30 0 c26 0 30 4 30 28 0 16 3 32 7 35 3 4 129 7 280 7
l273 0 0 -35z m734 -2 c-1 -31 1 -33 32 -33 l34 0 0 -139 0 -140 -32 -3 c-29
-3 -33 -7 -36 -35 l-3 -33 -170 0 -169 0 0 -140 0 -140 -140 0 -140 0 0 350 0
350 312 -2 313 -3 -1 -32z m384 -315 l2 -348 -140 0 -140 0 0 350 0 351 138
-3 137 -3 3 -347z m730 280 l3 -67 -103 -3 -103 -3 -3 -277 -2 -278 -140 0
-140 0 0 280 0 280 -105 0 -105 0 0 63 c0 35 3 67 7 70 4 4 160 6 347 5 l341
-3 3 -67z m662 37 c0 -33 2 -35 35 -35 l35 0 0 -315 0 -315 -140 0 -140 0 0
140 0 140 -65 0 -64 0 -3 -137 -3 -138 -137 -3 c-136 -3 -138 -2 -143 20 -3
13 -4 154 -3 313 l3 290 33 3 c28 3 32 7 32 31 0 15 3 31 7 34 3 4 129 7 280
7 l273 0 0 -35z m388 -247 l2 -278 205 0 205 0 0 -70 0 -70 -345 0 -345 0 0
350 0 351 138 -3 137 -3 3 -277z m-3580 -87 l3 -131 -171 0 -170 0 0 128 c0
71 2 131 4 133 2 2 78 3 168 2 l163 -2 3 -130z"/>
<path d="M1240 1200 l0 -70 65 0 65 0 0 70 0 70 -65 0 -65 0 0 -70z"/>
<path d="M1970 1200 l0 -70 65 0 65 0 0 70 0 70 -65 0 -65 0 0 -70z"/>
<path d="M3750 1200 l0 -70 65 0 65 0 0 70 0 70 -65 0 -65 0 0 -70z"/>
<path d="M2420 3175 l0 -45 50 0 50 0 0 45 0 45 -50 0 -50 0 0 -45z"/>
<path d="M2330 2885 l0 -45 145 0 145 0 0 45 0 45 -145 0 -145 0 0 -45z"/>
<path d="M282 2520 c-14 -6 -25 -21 -28 -39 -5 -23 -13 -31 -35 -36 -16 -4
-34 -15 -39 -25 -6 -11 -10 -151 -10 -353 0 -373 2 -388 61 -416 22 -10 35
-25 37 -39 2 -14 14 -27 28 -33 29 -11 720 -11 748 0 18 7 45 68 47 106 0 19
1 19 8 1 4 -10 23 -26 41 -35 19 -9 36 -25 38 -36 8 -44 18 -45 391 -45 196 0
366 3 377 6 34 9 54 76 54 175 0 136 13 129 -256 129 -123 0 -224 3 -224 8 -6
89 -7 311 -1 320 5 8 70 12 226 14 l220 3 17 35 c12 25 17 62 18 131 0 145 34
133 -409 137 -233 2 -378 -1 -395 -7 -17 -7 -28 -20 -32 -39 -5 -22 -14 -32
-40 -40 -33 -10 -34 -9 -34 16 -1 71 -10 72 -422 71 -200 0 -373 -4 -386 -9z
m748 -130 l0 -80 -240 0 -240 0 0 -240 0 -240 80 0 80 0 0 80 0 80 -40 0 -40
0 0 80 0 80 200 0 199 0 3 -228 c2 -126 2 -235 0 -243 -2 -12 -60 -14 -365
-12 l-362 2 -3 41 c-3 41 -3 41 -40 38 l-37 -3 -3 323 -2 322 40 0 40 0 0 40
0 40 365 0 365 0 0 -80z m910 0 l0 -80 -240 0 -240 0 0 -240 0 -240 240 0 240
0 0 -82 0 -83 -362 2 -363 2 -3 41 c-3 41 -3 41 -40 38 l-37 -3 -3 323 -2 322
40 0 40 0 0 40 0 40 365 0 365 0 0 -80z m-862 -193 c-15 -8 -468 6 -468 13 0
6 85 10 220 10 210 0 220 1 232 20 12 20 13 19 16 -11 2 -17 2 -32 0 -32z
m-428 -307 c0 -5 -9 -10 -20 -10 -11 0 -20 5 -20 10 0 6 9 10 20 10 11 0 20
-4 20 -10z"/>
</g>
</svg>
